<?xml version="1.0" encoding="utf-8"?>
<!-- Generator: Adobe Illustrator 19.2.0, SVG Export Plug-In . SVG Version: 6.00 Build 0)  -->
<svg version="1.1" id="Layer_1" xmlns="http://www.w3.org/2000/svg" xmlns:xlink="http://www.w3.org/1999/xlink" x="0px" y="0px"
	 viewBox="0 0 256 256" style="enable-background:new 0 0 256 256;" xml:space="preserve">
<style type="text/css">
	.st0{opacity:0.5;fill:#FFFFFF;}
	.st1{fill:#D0D2D3;}
	.st2{fill:url(#SVGID_1_);}
	.st3{fill:url(#SVGID_2_);}
	.st4{fill:url(#SVGID_3_);}
	.st5{fill:url(#SVGID_4_);}
	.st6{fill:url(#SVGID_5_);}
	.st7{fill:url(#SVGID_6_);}
	.st8{fill:url(#SVGID_7_);}
</style>
<path class="st0" d="M2.6,127.5C2.6,58,59,1.7,128.4,1.7S254.3,58,254.3,127.5c0,28.1-9.2,54-24.8,75c-8.4,6.1-18.7,14.5-24.4,24.8
	c-21.2,16.3-47.8,26-76.6,26C59,253.3,2.6,197,2.6,127.5z"/>
<path class="st1" d="M128.4,245.4c-29.4,0-56.3-10.8-77-28.7l-5.8,5.9c22.2,19.3,51.1,31.1,82.8,31.1c25.5,0,49.2-7.6,69-20.6
	l-6-5.9C173.2,238.7,151.6,245.4,128.4,245.4z"/>
<path class="st1" d="M10.5,127.5c0-65,52.9-117.9,117.9-117.9s117.9,52.9,117.9,117.9c0,11.2-1.6,22-4.5,32.3l6.6,6.5
	c4-12.2,6.1-25.3,6.1-38.8C254.6,57.9,198,1.3,128.4,1.3S2.3,57.9,2.3,127.5c0,16.2,3.1,31.6,8.6,45.8l6.4-6.5
	C12.9,154.5,10.5,141.3,10.5,127.5z"/>
<g>
	
		<radialGradient id="SVGID_1_" cx="100.0785" cy="145.9585" r="11.834" gradientTransform="matrix(3.3455 0 0 3.342 -295.6052 -300.9269)" gradientUnits="userSpaceOnUse">
		<stop  offset="0" style="stop-color:#0082B5"/>
		<stop  offset="0.5399" style="stop-color:#005480"/>
		<stop  offset="1" style="stop-color:#003556"/>
	</radialGradient>
	<polygon class="st2" points="39.5,223.6 76,186.6 38.9,150.1 2.4,187.2 	"/>
	
		<radialGradient id="SVGID_2_" cx="148.3288" cy="143.2122" r="16.8907" gradientTransform="matrix(3.3455 0 0 3.342 -295.6052 -300.9269)" gradientUnits="userSpaceOnUse">
		<stop  offset="0" style="stop-color:#0082B5"/>
		<stop  offset="0.5399" style="stop-color:#005480"/>
		<stop  offset="1" style="stop-color:#003556"/>
	</radialGradient>
	<polygon class="st3" points="200.2,124.1 147,178.1 201.1,231.3 254.3,177.3 	"/>
	
		<radialGradient id="SVGID_3_" cx="123.4285" cy="148.9896" r="8.0153" gradientTransform="matrix(3.3455 0 0 3.342 -295.6052 -300.9269)" gradientUnits="userSpaceOnUse">
		<stop  offset="0" style="stop-color:#0082B5"/>
		<stop  offset="0.5399" style="stop-color:#005480"/>
		<stop  offset="1" style="stop-color:#003556"/>
	</radialGradient>
	<polygon class="st4" points="117.5,221 141.3,196.8 117.2,173 93.3,197.2 	"/>
	
		<radialGradient id="SVGID_4_" cx="114.8824" cy="134.5683" r="8.5609" gradientTransform="matrix(3.3455 0 0 3.342 -295.6052 -300.9269)" gradientUnits="userSpaceOnUse">
		<stop  offset="0" style="stop-color:#0082B5"/>
		<stop  offset="0.5399" style="stop-color:#005480"/>
		<stop  offset="1" style="stop-color:#003556"/>
	</radialGradient>
	<polygon class="st5" points="88.9,174.6 114.6,148.6 88.5,123 62.9,149 	"/>
	
		<radialGradient id="SVGID_5_" cx="131.2971" cy="107.6518" r="5.0475" gradientTransform="matrix(3.3455 0 0 3.342 -295.6052 -300.9269)" gradientUnits="userSpaceOnUse">
		<stop  offset="0" style="stop-color:#0082B5"/>
		<stop  offset="0.5399" style="stop-color:#005480"/>
		<stop  offset="1" style="stop-color:#003556"/>
	</radialGradient>
	<polygon class="st6" points="143.5,44.8 129.6,59 143.8,72.9 157.7,58.7 	"/>
	
		<radialGradient id="SVGID_6_" cx="130.7974" cy="128.2041" r="8.5611" gradientTransform="matrix(3.3455 0 0 3.342 -295.6052 -300.9269)" gradientUnits="userSpaceOnUse">
		<stop  offset="0" style="stop-color:#0082B5"/>
		<stop  offset="0.5399" style="stop-color:#005480"/>
		<stop  offset="1" style="stop-color:#003556"/>
	</radialGradient>
	<polygon class="st7" points="141.8,101.7 116.2,127.7 142.2,153.3 167.8,127.3 	"/>
	
		<radialGradient id="SVGID_7_" cx="107.5217" cy="116.959" r="10.0833" gradientTransform="matrix(3.3455 0 0 3.342 -295.6052 -300.9269)" gradientUnits="userSpaceOnUse">
		<stop  offset="0" style="stop-color:#0082B5"/>
		<stop  offset="0.5399" style="stop-color:#005480"/>
		<stop  offset="1" style="stop-color:#003556"/>
	</radialGradient>
	<polygon class="st8" points="63.9,59.1 33.2,90.2 64.4,120.8 95,89.7 	"/>
</g>
</svg>
